<?xml version="1.0" encoding="utf-8"?>
<!-- Generator: Adobe Illustrator 22.0.1, SVG Export Plug-In . SVG Version: 6.00 Build 0)  -->
<svg version="1.1" id="Layer_1" xmlns="http://www.w3.org/2000/svg" xmlns:xlink="http://www.w3.org/1999/xlink" x="0px" y="0px"
	 viewBox="0 0 1073.4 805.4" style="enable-background:new 0 0 1073.4 805.4;" xml:space="preserve">
<style type="text/css">
	.st0{display:none;}
	.st1{fill:#79C79C;}
	.st2{fill:#FFFFFF;}
</style>
<path class="st0" d="M706.9,372.5L706.9,372.5c-8,9.1-21.8,9.9-30.9,1.9l-99.8-88.2c-9.1-8-9.9-21.8-1.9-30.9l0,0
	c8-9.1,21.8-9.9,30.9-1.9l99.8,88.2C714.1,349.7,714.9,363.5,706.9,372.5z"/>
<rect x="-126" y="-92" class="st1" width="1314" height="1268"/>
<g>
	<g>
		<path class="st2" d="M387.8,92.4h-55.1v365.3h55.1v22h-83.3V70.4h83.3V92.4z"/>
		<path class="st2" d="M493.5,92.4h-55.1v365.3h55.1v22h-83.3V70.4h83.3V92.4z"/>
		<path class="st2" d="M553,217.5h-32.2v-38.8H553V217.5z M553,395.6h-32.2v-38.8H553V395.6z"/>
		<path class="st2" d="M663.2,479.7h-83.3v-22H635V92.4h-55.1v-22h83.3V479.7z"/>
		<path class="st2" d="M768.9,479.7h-83.3v-22h55.1V92.4h-55.1v-22h83.3V479.7z"/>
	</g>
	<g>
		<path class="st2" d="M570.4,625.7c-3.3-2.5-6.9-3.7-10.8-3.7l-8.2,8.2l-0.6,42.4c9.3,4.2,17.8,7.1,25.6,8.6
			c3.4-7.8,5.1-17.3,5.1-28.5c0-6.3-1-11.7-3.1-16.4C576.5,631.7,573.8,628.1,570.4,625.7z"/>
		<path class="st2" d="M458.5,669.9c0,4.1,0.8,7.1,2.5,9.1c1.6,2,3.6,3,5.9,3c2.2,0,4.7-0.8,7.6-2.5l-0.2-4.3l0.2-4.5l0.6-11.7
			l-15.8,3.7C458.8,664.5,458.5,666.9,458.5,669.9z"/>
		<polygon class="st2" points="257,645.1 287.9,645.1 269.9,581 		"/>
		<path class="st2" d="M158.4,510.7v224.3h756.7V510.7H158.4z M629.5,558.3l26.2-5.9v23.3l-26.2,3.9V558.3z M351.2,693.7h-61.6v-7.2
			l10-0.2l-9.4-33.6h-34.8l-6.8,33.6l10.4,0.2v7.2h-46.3v-7.2l10-0.2l45.9-128.2l25.4-3.5l47.1,131.7l10,0.2V693.7z M412.2,625.9
			c-6.1-0.7-11.2-1.2-15.2-1.4l-4.1,5.1l-0.8,57.5l18.2,0.6v5.9h-54.7v-5.9l7.6-0.6l-0.6-73.3l-7.8,1.8l-2-6.1l32.4-10l7,21.9
			c4.5-9.1,9.4-16.2,14.7-21.3c3-1.1,6.6-1.6,10.9-1.6c5.7,0,11.1,1,16.2,3.1l-6.6,26.6C423.4,627.3,418.4,626.6,412.2,625.9z
			 M483.3,697.1c-3.7-2.6-6.2-6.1-7.6-10.6c-4.9,3-9.9,5.5-14.8,7.4c-5,1.9-9.3,2.9-13,2.9c-5.6,0-10.2-2-13.7-5.9
			c-3.6-4-5.3-9-5.3-15.2c0-2.7,0.3-5.7,0.9-8.9c0.6-3.2,1.4-5.8,2.4-7.7l43.4-7l0.4-5.9c0.3-6.1-1-11-3.9-14.4
			c-2.9-3.5-7.5-5.2-13.9-5.2c-2.9,0-5.9,0.3-9,0.9c-3.1,0.6-5.8,1.4-8,2.4l-3.3,7l-5.5-2l9.4-29.5c10.5-4.5,20.5-6.8,29.9-6.8
			c9.7,0,17.6,2.6,23.8,7.7c6.1,5.1,9.2,13.1,9.2,24.1l-0.2,4.1l-2,27.6l-0.4,7.4c0,2.5,0.2,4.4,0.6,5.8c0.4,1.4,1.1,2.9,2,4.4
			l6.3-2.5l2.5,5.9L483.3,697.1z M607.6,662.5c-2.3,7.8-5.1,13.9-8.4,18.2c-2.6,3.7-7.3,7.3-14.1,10.8c-6.8,3.5-12.6,5.2-17.2,5.2
			c-6.1,0-14.1-1.1-24-3.4c-9.8-2.3-17.1-4.7-21.9-7.3l-0.6-121.6l-7.8,1.6l-2-5.9l37.9-11.5l2.9,4.9l-0.8,67.4l19.2-22.5
			c7.9,0,14.9,1.8,21,5.4c6.1,3.6,10.8,8.6,14.2,14.9c3.4,6.3,5.1,13.5,5.1,21.6C611.1,647.4,609.9,654.7,607.6,662.5z M665.3,693.7
			h-44v-5.9l7.6-0.6l-0.6-72.9l-7.8,1.6l-2-5.9l37.1-11.5l2.9,4.9l-0.6,83.8l7.6,0.6V693.7z M726.6,697.1c-3.7-2.6-6.2-6.1-7.6-10.6
			c-4.9,3-9.9,5.5-14.8,7.4c-5,1.9-9.3,2.9-13,2.9c-5.6,0-10.2-2-13.7-5.9c-3.6-4-5.3-9-5.3-15.2c0-2.7,0.3-5.7,0.9-8.9
			c0.6-3.2,1.4-5.8,2.4-7.7l43.4-7l0.4-5.9c0.3-6.1-1-11-3.9-14.4c-2.9-3.5-7.5-5.2-13.9-5.2c-2.9,0-5.9,0.3-9,0.9
			c-3.1,0.6-5.8,1.4-8,2.4l-3.3,7l-5.5-2l9.4-29.5c10.5-4.5,20.5-6.8,29.9-6.8c9.7,0,17.6,2.6,23.8,7.7c6.1,5.1,9.2,13.1,9.2,24.1
			l-0.2,4.1l-2,27.6l-0.4,7.4c0,2.5,0.2,4.4,0.6,5.8c0.4,1.4,1.1,2.9,2,4.4l6.3-2.5l2.5,5.9L726.6,697.1z M860.7,693.7h-43.8v-5.9
			l7.6-0.6v-43.2c0-6-1.7-10.6-5-13.9c-3.3-3.3-8-5-13.8-5.1l-6.6,6.8l-0.8,55.5l7.6,0.6v5.9h-44v-5.9l7.6-0.6l-0.6-73.3l-7.8,1.8
			l-2-6.1l32.4-10l7.2,22.9l17-24.4c13,0,22.5,3.1,28.7,9.2s9.2,15.6,9.2,28.5v51.4l7.4,0.6V693.7z"/>
		<path class="st2" d="M701.8,669.9c0,4.1,0.8,7.1,2.5,9.1c1.6,2,3.6,3,5.9,3c2.2,0,4.7-0.8,7.6-2.5l-0.2-4.3l0.2-4.5l0.6-11.7
			l-15.8,3.7C702,664.5,701.8,666.9,701.8,669.9z"/>
	</g>
</g>
</svg>
