<?xml version="1.0"?>
<svg xmlns="http://www.w3.org/2000/svg" height="512px" viewBox="-21 -21 682 682.66511" width="512px"><path d="m312.753906 618.457031h-.265625c-158.867187-3.878906-286.738281-131.746093-290.609375-290.609375-.152344-5.890625 4.503906-10.78125 10.390625-10.933594h.277344c5.789063-.003906 10.519531 4.613282 10.664063 10.398438 3.570312 147.539062 122.328124 266.289062 269.863281 269.859375 5.890625.074219 10.605469 4.914063 10.53125 10.800781-.070313 5.894532-4.90625 10.609375-10.796875 10.53125zm0 0" fill="#121212"/><path d="m327.898438 618.457031c-5.886719.070313-10.722657-4.644531-10.800782-10.539062-.070312-5.886719 4.644532-10.722657 10.539063-10.800781 147.515625-3.5625 266.257812-122.292969 269.859375-269.804688.144531-5.785156 4.875-10.402344 10.667968-10.398438h.277344c5.882813.152344 10.535156 5.042969 10.386719 10.933594-3.878906 158.882813-131.777344 286.75-290.660156 290.59375zm0 0" fill="#121212"/><path d="m608.109375 323.101562c-5.785156 0-10.523437-4.617187-10.667969-10.402343-3.59375-147.496094-122.3125-266.210938-269.804687-269.808594-5.894531-.074219-10.609375-4.90625-10.539063-10.800781.078125-5.890625 4.914063-10.605469 10.800782-10.53125h.269531c158.863281 3.871094 286.734375 131.738281 290.609375 290.609375.148437 5.882812-4.5 10.78125-10.390625 10.933593zm0 0" fill="#121212"/><path d="m32.546875 323.101562h-.277344c-5.886719-.152343-10.542969-5.050781-10.390625-10.933593 3.878906-158.863281 131.746094-286.730469 290.609375-290.601563h.265625c5.894532-.074218 10.726563 4.644532 10.800782 10.53125.070312 5.894532-4.644532 10.730469-10.53125 10.800782-147.496094 3.601562-266.207032 122.308593-269.8125 269.800781-.144532 5.785156-4.875 10.402343-10.664063 10.402343zm0 0" fill="#121212"/><path d="m175.796875 173.875c-4.398437.003906-8.355469-2.691406-9.949219-6.792969-1.597656-4.101562-.515625-8.757812 2.726563-11.734375 32.117187-29.660156 72.230469-49.242187 115.371093-56.320312 3.089844-.480469 6.234376.40625 8.621094 2.425781 2.382813 2.023437 3.777344 4.976563 3.816406 8.101563.03125 5.46875-4.074218 10.070312-9.503906 10.667968-38.839844 6.480469-74.9375 24.164063-103.859375 50.886719-1.976562 1.792969-4.554687 2.777344-7.222656 2.765625zm0 0" fill="#121212"/><path d="m109.875 296.058594c-5.867188 0-10.632812-4.742188-10.664062-10.613282-.003907-.613281.039062-1.222656.128906-1.824218 7.089844-43.132813 26.671875-83.242188 56.332031-115.359375 2.546875-2.914063 6.472656-4.214844 10.261719-3.40625 3.785156.8125 6.835937 3.609375 7.96875 7.308593 1.128906 3.707032.167968 7.734376-2.523438 10.523438-26.804687 29.023438-44.519531 65.265625-50.953125 104.25-.765625 5.238281-5.257812 9.121094-10.550781 9.121094zm0 0" fill="#121212"/><path d="m285.765625 541.125h-.101563c-.578124 0-1.152343-.050781-1.71875-.144531-43.140624-7.074219-83.253906-26.652344-115.371093-56.316407-2.804688-2.578124-4.023438-6.460937-3.191407-10.179687.828126-3.722656 3.582032-6.71875 7.222657-7.855469 3.636719-1.144531 7.605469-.253906 10.414062 2.324219 29.019531 26.808594 65.261719 44.519531 104.242188 50.941406 5.53125.789063 9.515625 5.710938 9.140625 11.28125-.382813 5.578125-4.996094 9.914063-10.582032 9.949219zm0 0" fill="#121212"/><path d="m163.53125 475.203125c-2.988281 0-5.84375-1.25-7.859375-3.457031-29.660156-32.113282-49.242187-72.222656-56.332031-115.355469-.089844-.570313-.132813-1.144531-.128906-1.71875-.03125-5.675781 4.386718-10.386719 10.054687-10.707031 5.664063-.328125 10.59375 3.835937 11.214844 9.480468 6.484375 38.847657 24.175781 74.949219 50.898437 103.878907 2.859375 3.117187 3.609375 7.628906 1.910156 11.5-1.699218 3.871093-5.527343 6.371093-9.757812 6.378906zm0 0" fill="#121212"/><path d="m477.125 475.203125c-4.226562-.007813-8.054688-2.507813-9.753906-6.378906-1.707032-3.871094-.953125-8.382813 1.902344-11.5 26.804687-29.027344 44.519531-65.269531 50.957031-104.253907.816406-5.5 5.722656-9.445312 11.269531-9.066406 5.546875.375 9.878906 4.949219 9.945312 10.507813v.105469c.003907.578124-.039062 1.152343-.132812 1.71875-7.082031 43.132812-26.671875 83.242187-56.324219 115.359374-2.011719 2.222657-4.863281 3.496094-7.863281 3.507813zm0 0" fill="#121212"/><path d="m354.992188 541.125c-5.714844.085938-10.488282-4.351562-10.808594-10.058594-.328125-5.710937 3.90625-10.660156 9.59375-11.222656 38.84375-6.480469 74.941406-24.167969 103.859375-50.890625 2.808593-2.578125 6.777343-3.46875 10.417969-2.324219 3.636718 1.136719 6.386718 4.132813 7.21875 7.855469.832031 3.71875-.390626 7.601563-3.191407 10.179687-32.121093 29.664063-72.230469 49.242188-115.371093 56.316407-.570313.09375-1.140626.144531-1.71875.144531zm0 0" fill="#121212"/><path d="m464.859375 173.875c-2.675781 0-5.253906-1.007812-7.222656-2.820312-29.015625-26.804688-65.261719-44.519532-104.246094-50.941407-5.527344-.785156-9.515625-5.707031-9.132813-11.277343.375-5.574219 4.988282-9.910157 10.574219-9.945313h.109375c.574219 0 1.152344.042969 1.71875.136719 43.136719 7.078125 83.253906 26.660156 115.367188 56.320312 3.234375 2.964844 4.320312 7.613282 2.738281 11.710938-1.585937 4.09375-5.515625 6.800781-9.90625 6.816406zm0 0" fill="#121212"/><path d="m530.777344 296.058594c-5.433594 0-10.003906-4.085938-10.601563-9.492188-6.488281-38.847656-24.179687-74.949218-50.902343-103.878906-2.683594-2.789062-3.652344-6.816406-2.519532-10.523438 1.132813-3.699218 4.179688-6.496093 7.96875-7.308593 3.785156-.808594 7.714844.492187 10.265625 3.40625 29.652344 32.117187 49.242188 72.226562 56.324219 115.359375.09375.566406.136719 1.144531.132812 1.71875.015626 2.839844-1.101562 5.5625-3.105468 7.574218-2 2.011719-4.726563 3.144532-7.5625 3.144532zm0 0" fill="#121212"/><path d="m231.273438 210.890625c-4.59375 0-8.664063-2.941406-10.121094-7.296875-1.449219-4.355469.050781-9.148438 3.722656-11.90625 9.511719-7.140625 19.8125-13.171875 30.695312-17.976562 3.515626-1.664063 7.65625-1.28125 10.8125.992187 3.152344 2.277344 4.816407 6.089844 4.34375 9.953125-.472656 3.855469-3.011718 7.152344-6.621093 8.597656-9.382813 4.148438-18.261719 9.359375-26.464844 15.523438-1.839844 1.371094-4.070313 2.109375-6.367187 2.113281zm0 0" fill="#121212"/><path d="m183.796875 270.207031c-3.59375-.007812-6.945313-1.824219-8.914063-4.835937-1.964843-3.007813-2.285156-6.804688-.847656-10.101563 4.800782-10.878906 10.824219-21.175781 17.964844-30.6875 3.535156-4.710937 10.21875-5.664062 14.929688-2.128906 4.71875 3.527344 5.667968 10.21875 2.132812 14.929687-6.160156 8.207032-11.371094 17.09375-15.515625 26.484376-1.714844 3.851562-5.53125 6.339843-9.75 6.339843zm0 0" fill="#121212"/><path d="m440.097656 419.738281c-2.308594.003907-4.554687-.742187-6.394531-2.132812-4.714844-3.535157-5.667969-10.21875-2.132813-14.9375 6.164063-8.207031 11.371094-17.089844 15.515626-26.484375 2.472656-5.203125 8.628906-7.511719 13.910156-5.203125 5.28125 2.304687 7.773437 8.386719 5.632812 13.738281-4.800781 10.878906-10.828125 21.175781-17.960937 30.6875-2.011719 2.722656-5.183594 4.328125-8.570313 4.332031zm0 0" fill="#121212"/><path d="m380.816406 467.203125c-5.046875-.003906-9.398437-3.550781-10.425781-8.484375-1.03125-4.941406 1.535156-9.929688 6.160156-11.953125 9.382813-4.152344 18.261719-9.355469 26.464844-15.519531 3.046875-2.285156 7.085937-2.773438 10.589844-1.277344 3.5 1.5 5.941406 4.75 6.398437 8.535156.457032 3.785156-1.140625 7.523438-4.191406 9.808594-9.511719 7.144531-19.8125 13.171875-30.699219 17.972656-1.351562.605469-2.816406.917969-4.296875.917969zm0 0" fill="#121212"/><path d="m456.855469 270.207031c-4.242188 0-8.078125-2.515625-9.777344-6.402343-4.148437-9.390626-9.355469-18.277344-15.519531-26.484376-3.535156-4.710937-2.582032-11.402343 2.128906-14.9375 4.71875-3.527343 11.402344-2.578124 14.9375 2.132813 7.132812 9.511719 13.164062 19.8125 17.964844 30.691406 1.433594 3.292969 1.117187 7.09375-.851563 10.101563-1.96875 3.011718-5.316406 4.824218-8.910156 4.832031zm0 0" fill="#121212"/><path d="m409.382812 210.890625c-2.308593.003906-4.554687-.746094-6.402343-2.132813-8.203125-6.167968-17.078125-11.375-26.464844-15.523437-3.605469-1.445313-6.144531-4.742187-6.621094-8.605469-.472656-3.855468 1.191407-7.667968 4.347657-9.945312 3.152343-2.273438 7.292968-2.65625 10.808593-.992188 10.882813 4.800782 21.1875 10.832032 30.699219 17.976563 3.671875 2.753906 5.171875 7.546875 3.71875 11.902343-1.453125 4.355469-5.527344 7.296876-10.121094 7.296876zm0 0" fill="#121212"/><path d="m259.839844 467.203125c-1.46875 0-2.925782-.300781-4.269532-.898437-10.882812-4.800782-21.183593-10.828126-30.695312-17.972657-4.714844-3.53125-5.671875-10.21875-2.136719-14.929687 3.535157-4.714844 10.222657-5.671875 14.933594-2.136719 8.203125 6.164063 17.085937 11.375 26.464844 15.523437 4.621093 2.019532 7.191406 7.007813 6.160156 11.949219-1.03125 4.941407-5.378906 8.480469-10.429687 8.484375zm0 0" fill="#121212"/><path d="m200.554688 419.738281c-3.355469 0-6.519532-1.582031-8.53125-4.265625-7.140626-9.511718-13.164063-19.8125-17.964844-30.6875-2.144532-5.351562.351562-11.4375 5.628906-13.742187 5.285156-2.308594 11.441406 0 13.914062 5.207031 4.144532 9.394531 9.347657 18.277344 15.515626 26.488281 3.535156 4.710938 2.582031 11.394531-2.132813 14.929688-1.855469 1.378906-4.117187 2.105469-6.429687 2.070312zm0 0" fill="#121212"/><path d="m320.328125 640c-4.53125.003906-8.570313-2.859375-10.070313-7.136719l-78.460937-224.324219-224.316406-78.460937c-4.28125-1.5-7.148438-5.539063-7.148438-10.074219 0-4.53125 2.867188-8.570312 7.148438-10.066406l224.316406-78.460938 78.460937-224.328124c1.496094-4.28125 5.539063-7.148438 10.070313-7.148438 4.535156 0 8.570313 2.867188 10.066406 7.148438l78.464844 224.328124 224.316406 78.460938c4.277344 1.496094 7.144531 5.535156 7.144531 10.066406 0 4.535156-2.867187 8.574219-7.144531 10.074219l-224.316406 78.460937-78.503906 224.292969c-1.484375 4.277344-5.503907 7.148438-10.027344 7.167969zm-277.042969-319.996094 200.371094 70.136719c3.0625 1.066406 5.476562 3.476563 6.550781 6.535156l70.121094 200.371094 70.117187-200.371094c1.074219-3.058593 3.488282-5.46875 6.554688-6.535156l200.367188-70.136719-200.367188-70.128906c-3.066406-1.070312-5.480469-3.476562-6.554688-6.539062l-70.117187-200.371094-70.121094 200.371094c-1.074219 3.0625-3.488281 5.46875-6.550781 6.539062zm0 0" fill="#121212"/><path d="m400.53125 410.871094c-2.832031 0-5.542969-1.121094-7.546875-3.125l-160.402344-160.402344c-4.042969-4.183594-3.984375-10.835938.132813-14.949219 4.117187-4.117187 10.765625-4.175781 14.953125-.132812l160.402343 160.402343c3.050782 3.050782 3.964844 7.640626 2.3125 11.625-1.648437 3.984376-5.542968 6.582032-9.851562 6.582032zm0 0" fill="#121212"/><path d="m240.128906 410.871094c-4.316406 0-8.203125-2.597656-9.855468-6.582032-1.648438-3.984374-.738282-8.574218 2.308593-11.625l160.402344-160.402343c4.1875-4.042969 10.839844-3.984375 14.957031.132812 4.113282 4.113281 4.171875 10.765625.128906 14.949219l-160.402343 160.402344c-2 2.003906-4.714844 3.125-7.539063 3.125zm0 0" fill="#121212"/><path d="m320.328125 640c-5.890625 0-10.664063-4.777344-10.664063-10.664062v-618.65625c0-5.894532 4.773438-10.6718755 10.664063-10.6718755s10.667969 4.7773435 10.667969 10.6718755v618.65625c0 5.886718-4.777344 10.664062-10.667969 10.664062zm0 0" fill="#121212"/><path d="m629.65625 330.671875h-618.65625c-5.894531 0-10.667969-4.773437-10.667969-10.667969 0-5.886718 4.773438-10.664062 10.667969-10.664062h618.65625c5.890625 0 10.664062 4.777344 10.664062 10.664062 0 5.894532-4.773437 10.667969-10.664062 10.667969zm0 0" fill="#121212"/><path d="m233.03125 83.5c0 5.886719-4.773438 10.664062-10.664062 10.664062-5.890626 0-10.667969-4.777343-10.667969-10.664062 0-5.894531 4.777343-10.667969 10.667969-10.667969 5.890624 0 10.664062 4.773438 10.664062 10.667969zm0 0" fill="#121212"/><path d="m428.957031 556.511719c0 5.890625-4.773437 10.664062-10.667969 10.664062-5.890624 0-10.667968-4.773437-10.667968-10.664062s4.777344-10.667969 10.667968-10.667969c5.894532 0 10.667969 4.777344 10.667969 10.667969zm0 0" fill="#121212"/><path d="m567.5 222.046875c0 5.886719-4.777344 10.664063-10.664062 10.664063-5.894532 0-10.667969-4.777344-10.667969-10.664063 0-5.894531 4.773437-10.667969 10.667969-10.667969 5.886718 0 10.664062 4.773438 10.664062 10.667969zm0 0" fill="#121212"/><path d="m94.484375 417.964844c0 5.894531-4.773437 10.671875-10.664063 10.671875-5.890624 0-10.667968-4.777344-10.667968-10.671875 0-5.886719 4.777344-10.664063 10.667968-10.664063 5.890626 0 10.664063 4.777344 10.664063 10.664063zm0 0" fill="#121212"/><path d="m512.015625 138.988281c0 5.886719-4.777344 10.664063-10.667969 10.664063-5.886718 0-10.667968-4.777344-10.667968-10.664063 0-5.894531 4.78125-10.671875 10.667968-10.671875 5.890625 0 10.667969 4.777344 10.667969 10.671875zm0 0" fill="#121212"/><path d="m149.972656 501.027344c0 5.890625-4.773437 10.667968-10.664062 10.667968-5.894532 0-10.667969-4.777343-10.667969-10.667968s4.773437-10.667969 10.667969-10.667969c5.890625 0 10.664062 4.777344 10.664062 10.667969zm0 0" fill="#121212"/><path d="m512.015625 501.027344c0 5.890625-4.777344 10.667968-10.667969 10.667968-5.886718 0-10.667968-4.777343-10.667968-10.667968s4.78125-10.667969 10.667968-10.667969c5.890625 0 10.667969 4.777344 10.667969 10.667969zm0 0" fill="#121212"/><path d="m149.972656 138.988281c0 5.886719-4.773437 10.664063-10.664062 10.664063-5.894532 0-10.667969-4.777344-10.667969-10.664063 0-5.894531 4.773437-10.671875 10.667969-10.671875 5.890625 0 10.664062 4.777344 10.664062 10.671875zm0 0" fill="#121212"/><path d="m428.957031 83.5c0 5.886719-4.773437 10.664062-10.667969 10.664062-5.890624 0-10.667968-4.777343-10.667968-10.664062 0-5.894531 4.777344-10.667969 10.667968-10.667969 5.894532 0 10.667969 4.773438 10.667969 10.667969zm0 0" fill="#121212"/><path d="m233.03125 556.511719c0 5.890625-4.773438 10.664062-10.664062 10.664062-5.890626 0-10.667969-4.773437-10.667969-10.664062s4.777343-10.667969 10.667969-10.667969c5.890624 0 10.664062 4.777344 10.664062 10.667969zm0 0" fill="#121212"/><path d="m567.5 417.964844c0 5.894531-4.777344 10.671875-10.664062 10.671875-5.894532 0-10.667969-4.777344-10.667969-10.671875 0-5.886719 4.773437-10.664063 10.667969-10.664063 5.886718 0 10.664062 4.777344 10.664062 10.664063zm0 0" fill="#121212"/><path d="m94.484375 222.046875c0 5.886719-4.773437 10.664063-10.664063 10.664063-5.890624 0-10.667968-4.777344-10.667968-10.664063 0-5.894531 4.777344-10.667969 10.667968-10.667969 5.890626 0 10.664063 4.773438 10.664063 10.667969zm0 0" fill="#121212"/><path d="m138.996094 512.003906c-3.933594 0-7.546875-2.167968-9.402344-5.636718-1.855469-3.472657-1.65625-7.679688.53125-10.949219l73.796875-110.707031c3.265625-4.90625 9.886719-6.242188 14.792969-2.980469 4.910156 3.269531 6.242187 9.886719 2.980468 14.796875l-44.246093 66.34375 66.355469-44.222656c3.171874-2.132813 7.246093-2.410157 10.679687-.714844 3.425781 1.6875 5.6875 5.085937 5.925781 8.90625.234375 3.816406-1.589844 7.46875-4.785156 9.570312l-110.707031 73.800782c-1.75 1.167968-3.8125 1.792968-5.921875 1.792968zm0 0" fill="#121212"/><path d="m501.65625 512.003906c-2.105469 0-4.164062-.625-5.917969-1.792968l-110.707031-73.800782c-3.199219-2.101562-5.019531-5.753906-4.785156-9.570312.234375-3.820313 2.496094-7.21875 5.929687-8.90625 3.425781-1.695313 7.5-1.417969 10.671875.714844l66.410156 44.222656-44.242187-66.34375c-3.265625-4.910156-1.933594-11.527344 2.972656-14.796875 4.910157-3.261719 11.535157-1.925781 14.796875 2.980469l73.800782 110.707031c2.1875 3.28125 2.386718 7.496093.519531 10.972656-1.871094 3.472656-5.503907 5.632813-9.449219 5.613281zm0 0" fill="#121212"/><path d="m427.835938 260.058594c-3.933594 0-7.546876-2.164063-9.402344-5.628906-1.855469-3.46875-1.648438-7.671876.527344-10.949219l44.242187-66.339844-66.355469 44.222656c-3.171875 2.132813-7.246094 2.40625-10.671875.71875-3.433593-1.695312-5.695312-5.09375-5.929687-8.910156s1.585937-7.46875 4.785156-9.570313l110.707031-73.800781c4.226563-2.824219 9.867188-2.269531 13.464844 1.328125 3.601563 3.59375 4.15625 9.234375 1.328125 13.46875l-73.800781 110.707032c-1.984375 2.972656-5.320313 4.757812-8.894531 4.753906zm0 0" fill="#121212"/><path d="m212.816406 260.058594c-3.570312.003906-6.910156-1.78125-8.894531-4.753906l-73.796875-110.707032c-2.828125-4.234375-2.269531-9.875 1.328125-13.46875 3.59375-3.597656 9.234375-4.152344 13.464844-1.328125l110.707031 73.800781c3.195312 2.101563 5.019531 5.753907 4.785156 9.570313-.238281 3.816406-2.5 7.214844-5.925781 8.910156-3.433594 1.6875-7.507813 1.414063-10.679687-.71875l-66.355469-44.222656 44.246093 66.339844c2.175782 3.277343 2.378907 7.480469.523438 10.949219-1.855469 3.464843-5.46875 5.628906-9.402344 5.628906zm0 0" fill="#121212"/></svg>
