<?xml version="1.0" encoding="iso-8859-1"?>
<!-- Generator: Adobe Illustrator 18.0.0, SVG Export Plug-In . SVG Version: 6.00 Build 0)  -->
<!DOCTYPE svg PUBLIC "-//W3C//DTD SVG 1.1//EN" "http://www.w3.org/Graphics/SVG/1.1/DTD/svg11.dtd">
<svg xmlns="http://www.w3.org/2000/svg" xmlns:xlink="http://www.w3.org/1999/xlink" version="1.1" id="Capa_1" x="0px" y="0px" viewBox="0 0 216.416 216.416" style="enable-background:new 0 0 216.416 216.416;" xml:space="preserve" width="512px" height="512px">
<g>
	<path d="M215.912,105.503c-0.073-0.188-0.153-0.373-0.24-0.555c-9.597-19.932-24.533-36.792-43.191-48.758   c-19.171-12.295-41.396-18.793-64.271-18.793c-22.875,0-45.101,6.499-64.272,18.795c-18.59,11.922-33.484,28.704-43.085,48.54   c-1.076,2.061-1.156,4.553-0.11,6.726c9.596,19.935,24.532,36.798,43.192,48.766c19.172,12.297,41.398,18.796,64.275,18.796   c22.876,0,45.102-6.499,64.273-18.795c18.66-11.967,33.595-28.829,43.192-48.762C216.573,109.596,216.657,107.435,215.912,105.503z    M108.21,164.019c-38.583,0-74.42-21.789-92.312-55.812C33.79,74.184,69.627,52.396,108.21,52.396   c38.582,0,74.42,21.79,92.312,55.812C182.629,142.228,146.791,164.019,108.21,164.019z" fill="#FFFFFF"/>
	<path d="M108.209,75.291c-18.15,0-32.917,14.767-32.917,32.917s14.767,32.917,32.917,32.917   s32.917-14.767,32.917-32.917S126.359,75.291,108.209,75.291z M108.209,126.125c-9.879,0-17.917-8.038-17.917-17.917   s8.038-17.917,17.917-17.917s17.917,8.038,17.917,17.917S118.088,126.125,108.209,126.125z" fill="#FFFFFF"/>
</g>
<g>
</g>
<g>
</g>
<g>
</g>
<g>
</g>
<g>
</g>
<g>
</g>
<g>
</g>
<g>
</g>
<g>
</g>
<g>
</g>
<g>
</g>
<g>
</g>
<g>
</g>
<g>
</g>
<g>
</g>
</svg>
