<?xml version="1.0" encoding="utf-8"?>
<!-- Generator: Adobe Illustrator 22.0.1, SVG Export Plug-In . SVG Version: 6.00 Build 0)  -->
<svg version="1.1" id="Layer_1" xmlns="http://www.w3.org/2000/svg" xmlns:xlink="http://www.w3.org/1999/xlink" x="0px" y="0px"
	 viewBox="0 0 1073.4 805.4" style="enable-background:new 0 0 1073.4 805.4;" xml:space="preserve">
<style type="text/css">
	.st0{display:none;}
	.st1{fill:#FFFFFF;}
	.st2{fill:#79C79C;}
	.st3{display:none;fill:#79C79C;}
	.st4{display:inline;fill:#79C79C;}
</style>
<path class="st0" d="M706.9,372.5L706.9,372.5c-8,9.1-21.8,9.9-30.9,1.9l-99.8-88.2c-9.1-8-9.9-21.8-1.9-30.9l0,0
	c8-9.1,21.8-9.9,30.9-1.9l99.8,88.2C714.1,349.7,714.9,363.5,706.9,372.5z"/>
<rect x="-126" y="-92" class="st1" width="1314" height="1268"/>
<g>
	<g>
		<path class="st2" d="M387.8,92.4h-55.1v365.3h55.1v22h-83.3V70.4h83.3V92.4z"/>
		<path class="st2" d="M493.5,92.4h-55.1v365.3h55.1v22h-83.3V70.4h83.3V92.4z"/>
		<path class="st2" d="M553,217.5h-32.2v-38.8H553V217.5z M553,395.6h-32.2v-38.8H553V395.6z"/>
		<path class="st2" d="M663.2,479.7h-83.3v-22H635V92.4h-55.1v-22h83.3V479.7z"/>
		<path class="st2" d="M768.9,479.7h-83.3v-22h55.1V92.4h-55.1v-22h83.3V479.7z"/>
	</g>
	<g>
		<path class="st3" d="M570.4,625.7c-3.3-2.5-6.9-3.7-10.8-3.7l-8.2,8.2l-0.6,42.4c9.3,4.2,17.8,7.1,25.6,8.6
			c3.4-7.8,5.1-17.3,5.1-28.5c0-6.3-1-11.7-3.1-16.4C576.5,631.7,573.8,628.1,570.4,625.7z"/>
		<path class="st3" d="M458.5,669.9c0,4.1,0.8,7.1,2.5,9.1c1.6,2,3.6,3,5.9,3c2.2,0,4.7-0.8,7.6-2.5l-0.2-4.3l0.2-4.5l0.6-11.7
			l-15.8,3.7C458.8,664.5,458.5,666.9,458.5,669.9z"/>
		<polygon class="st3" points="257,645.1 287.9,645.1 269.9,581 		"/>
		<path class="st3" d="M701.8,669.9c0,4.1,0.8,7.1,2.5,9.1c1.6,2,3.6,3,5.9,3c2.2,0,4.7-0.8,7.6-2.5l-0.2-4.3l0.2-4.5l0.6-11.7
			l-15.8,3.7C702,664.5,701.8,666.9,701.8,669.9z"/>
	</g>
	<g class="st0">
		<polygon class="st2" points="257,645.1 287.9,645.1 269.9,581 		"/>
		<path class="st4" d="M327.9,560.6V688h429.7V560.6H327.9z M690.7,621.7c-3.7-3.3-8-6.2-12.8-7.8l9.4-2.9L690.7,621.7z
			 M655.1,613.1c-9.3,0.4-18.6,0.7-27.9,1c5.9-2.5,11.5-3.8,16.8-3.8C648.3,610.4,652,611.3,655.1,613.1z M611.8,614.6
			c-5.4,0.1-10.7,0.2-16.1,0.3l14.5-4.5l1.6,2.8L611.8,614.6z M595.5,587.6l14.9-3.4v13.3l-14.9,2.2V587.6z M550,582.1l1.6,2.8
			l-0.3,25.3c-5.7-0.1-11.4-0.4-17.2-0.7l-0.1-18.4l-4.4,0.9l0,0c-0.6-1.8,0.4-3.8,2.3-4.4L550,582.1z M475.2,610.4
			c2,0,4,0.2,5.9,0.7c-2.6,0.4-5.2,0.9-7.8,1.4c-2.5,1.1-5,2.1-7.5,3.2c-0.3,0.1-0.5,0.3-0.8,0.5c1.3-1.9,2.7-3.5,4.1-4.8
			C470.8,610.7,472.8,610.4,475.2,610.4z M437.4,664.5h-35v-4.1l5.7-0.1l-5.3-19.1H383l-3.8,19.1l5.9,0.1v4.1h-26.3v-4.1l5.7-0.1
			l26-72.8l14.4-2l26.7,74.8l5.7,0.1V664.5z M443.9,619.1l-4.4,1l-1.2-3.5l18.4-5.7l3,9.3c-1,1.1-2,2.3-2.8,3.5
			c-4.1,5.3-7.1,12.2-6.8,19.1c0.3,5.6,1.7,11,4.3,15.9c1,1.9,2.5,3.8,4.2,5.7H440v-3.4l4.3-0.3L443.9,619.1z M695.6,664.5h-3.2
			c0.9-1.1,1.7-2.2,2.5-3.4l0.7,0.1V664.5z M726.7,664.5h-24.9v-3.4l4.3-0.3v-24.5c0-3.4-0.9-6-2.8-7.9c-1.9-1.9-4.5-2.8-7.8-2.9
			l-0.9,0.9c-0.8-1.1-1.6-2.2-2.6-3.2l9-12.9c7.4,0,12.8,1.7,16.3,5.2s5.2,8.9,5.2,16.2v29.2l4.2,0.3V664.5z"/>
	</g>
	<g>
		<path class="st2" d="M716.6,619.5c-0.7,2.5-1.5,5.2-2.4,8.2c-0.9,3-2,6-3.2,9.2h5c0.3,2.3,0.9,4.6,1.8,7.1
			c0.9,2.5,2.1,4.7,3.8,6.8c1-3.5,1.5-7.1,1.5-10.8c0-4.1-0.6-8-1.8-11.6C720.1,624.7,718.6,621.8,716.6,619.5z"/>
		<path class="st2" d="M855.1,619.5c-0.7,2.5-1.5,5.2-2.4,8.2c-0.9,3-2,6-3.2,9.2h5c0.3,2.3,0.9,4.6,1.8,7.1
			c0.9,2.5,2.1,4.7,3.8,6.8c1-3.5,1.5-7.1,1.5-10.8c0-4.1-0.6-8-1.8-11.6C858.6,624.7,857,621.8,855.1,619.5z"/>
		<path class="st2" d="M158.4,510.7v224.3h756.7V510.7H158.4z M493.6,571.7c2.1-2,4.5-3,7.3-3c2.8,0,5.3,1,7.3,3
			c2.1,2,3.1,4.4,3.1,7.3c0,2.8-1,5.3-3.1,7.3c-2.1,2.1-4.5,3.1-7.3,3.1c-2.8,0-5.3-1-7.3-3.1c-2.1-2.1-3.1-4.5-3.1-7.3
			C490.5,576.1,491.5,573.7,493.6,571.7z M264,690.8c-2.1,2.1-4.5,3.1-7.3,3.1c-2.8,0-5.3-1-7.3-3.1c-2.1-2.1-3.1-4.5-3.1-7.3
			c0-2.8,1-5.3,3.1-7.3c2.1-2,4.5-3,7.3-3c2.8,0,5.3,1,7.3,3c2.1,2,3.1,4.4,3.1,7.3C267.1,686.3,266.1,688.7,264,690.8z
			 M275.4,663.7c-6-0.1-11.9-0.1-17.7-0.3c-5.8-0.1-11.3-0.2-16.6-0.3c-12.3-0.3-24.5-0.7-36.6-1l-13.8-34c2.7-3.1,6.4-5.8,11-8.2
			s9.6-4.4,15-5.9c5.4-1.5,10.9-2.7,16.6-3.5c5.6-0.8,10.9-1.2,15.8-1.2l2.4,26.2c-3.3,0-6.9,0.1-10.7,0.3
			c-3.8,0.2-7.5,0.6-11.1,1.1s-6.9,1.2-9.9,2c-3,0.8-5.4,1.8-7.1,2.9c1.5,1,3.8,1.9,6.8,2.7c3.1,0.8,6.6,1.5,10.7,2.1
			c4,0.6,8.4,1.1,13.2,1.5c4.7,0.5,9.5,0.8,14.2,1c4.7,0.2,9.3,0.4,13.8,0.6c4.5,0.2,8.6,0.3,12.2,0.3l-8.9-40.7H305
			c0.2,3.1,0.5,6.8,0.7,11c0.2,4.3,0.5,8.8,0.9,13.6c0.4,4.8,0.9,9.8,1.5,15c0.6,5.2,1.3,10.2,2.1,15.1c-5.5,0-11.1,0-17-0.1
			C287.3,663.8,281.4,663.7,275.4,663.7z M425.7,657.1c-7.3,0-14.2,0.4-20.7,1.1c-6.5,0.7-12.6,1.5-18.3,2.4
			c-5.7,0.9-11,1.6-15.9,2.3c-4.9,0.7-9.4,1-13.5,1l0,0h-10.8c-1.3,5.6-3,10.5-5.2,14.9c-2.2,4.3-4.2,7.5-6.1,9.4l-26.8-12.5
			c1.9-1.1,4-2.7,6.2-4.8s4.2-4.6,6.1-7.7c1.9-3.1,3.4-6.7,4.6-10.9c1.2-4.2,1.8-9.1,1.8-14.5c0-4-0.4-8.3-1.1-13.1
			c-0.7-4.7-2-9.9-3.8-15.5h24.8c0.2,5,0.8,10.1,1.7,15.2c0.7,4.3,1.7,9.1,3.2,14.4c1.4,5.2,3.3,10.2,5.6,14.9c3.6,0,7.6-0.3,12-0.9
			c4.3-0.6,9.1-1.3,14.2-2.1c-2.3-0.7-4.3-1.3-6-1.9c-1.7-0.6-3.2-1.1-4.4-1.7c-1.4-0.6-2.6-1.1-3.6-1.7l-12.1-30.6
			c4.9-6.7,10.9-11.5,17.9-14.4c7.1-2.8,14.5-4.3,22.2-4.3c2.5,0,5,0.1,7.4,0.4c2.4,0.3,4.9,0.7,7.4,1.1l2.4,26.2
			c-4.8-1.3-9.7-1.9-14.7-1.9c-4.7,0-9.1,0.5-13.3,1.5c-4.2,1-7.8,2.7-10.8,5c2.8,2.1,6.3,3.9,10.4,5.5c4.1,1.6,8.4,2.9,12.9,3.9
			c4.5,1,9,1.8,13.6,2.4c4.6,0.6,8.8,0.9,12.8,0.9V657.1z M537,671.1c-5.6-0.1-12-0.4-19.2-0.8c-7.2-0.4-14.9-1.1-23.1-2.1
			c-8.1-1-16.2-2.3-24-4l-13.8-35.7c3.1-4,6.6-7.3,10.7-9.9c4-2.6,8.1-4.7,12.3-6.3c4.2-1.6,8.2-2.7,12.1-3.3
			c3.9-0.6,7.1-0.9,9.7-0.9l2.4,26.2c-1.1,0-2.7,0.1-4.6,0.3c-1.9,0.2-4,0.7-6.3,1.3c-2.3,0.6-4.7,1.5-7.2,2.5c-2.5,1-4.8,2.3-7,3.9
			c5.7,3.2,12.2,5.8,19.4,7.9c7.2,2.1,15.2,3.2,24,3.6l-11.6-53h30.3c0.3,4,0.7,8.9,1,14.6c0.3,5.8,0.8,11.9,1.5,18.3
			c0.6,6.4,1.4,12.9,2.4,19.5c1,6.6,2.2,12.6,3.7,18.2C546.7,671.3,542.6,671.2,537,671.1z M654.6,690.9c-2.1,2.1-4.5,3.1-7.3,3.1
			c-2.8,0-5.3-1-7.3-3.1c-2.1-2.1-3.1-4.5-3.1-7.3c0-2.8,1-5.3,3.1-7.3c2.1-2,4.5-3,7.3-3c2.8,0,5.3,1,7.3,3c2.1,2,3.1,4.4,3.1,7.3
			C657.6,686.4,656.6,688.9,654.6,690.9z M742.3,650.3c-1.2,4.4-3.2,9-5.9,13.7h-27.5c-0.7-0.7-1.4-1.5-2.1-2.4
			c-1.4-1.7-2.7-3.9-3.9-6.7c-0.9,1.6-1.9,3.2-2.8,4.7c-1,1.5-2,3-3.2,4.4h-14.7h-3.6l-7.3,10.4c-2.7-1.9-5.4-4.4-8.1-7.3
			c-2.7-2.9-5.2-5.9-7.4-9c-7.9,0.9-15.4,2.1-22.5,3.6c-7.1,1.5-14.1,2.2-20.9,2.2l0,0h-10.3c-1.8,5.4-4.2,10.1-7,14.4
			c-2.8,4.2-6,7.5-9.6,9.9l-26.8-12.5c9-3.8,15.7-8.5,20.1-14.1c4.4-5.6,6.6-11.7,6.6-18.2c0-7.3-2.7-14.8-8-22.4
			c-0.6,2.1-0.9,4.9-0.9,8.5c0,3.1,0.3,6.6,1,10.7c0.7,4,2,8.4,3.9,13.1l-19.7,6.3c-3.1-5.6-5.2-11.1-6.3-16.7
			c-1.1-5.5-1.7-10.7-1.7-15.6c0-3.6,0.2-7,0.6-10.1c0.4-3.1,0.9-5.8,1.5-8l40.3-3.4c2.2,3.6,4,7.4,5.4,11.4c1.4,3.9,2.7,7.9,3.8,12
			c1.1,4.1,2.2,8.2,3.2,12.3c1,4.1,2.3,8.1,3.8,12.1c5.6,0,11.4-0.7,17.4-2.1c6-1.4,12.3-2.8,18.8-4c-2.2-3.3-3.9-6.3-5.1-8.9
			c-1.3-2.6-2-4.5-2.2-5.6l-3.8,10.1l-20.9-6.2c2.4-4.8,4.2-10.1,5.3-15.9c1.1-5.8,1.7-11.5,1.7-17.1l25.5-8.5
			c0.9,7.4,2.7,14.6,5.5,21.7c1.1,3.1,2.5,6.2,4.2,9.5c1.7,3.2,3.6,6.5,5.9,9.7c2.3,3.2,4.9,6.3,7.8,9.2c2.9,3,6.2,5.7,9.8,8.2
			c3-6.9,5.3-14.4,6.9-22.3c1.7-7.9,3-15.3,4.2-22.1h41.7c2.7,4.2,4.9,8.7,6.6,13.3c1.7,4.7,2.5,9.6,2.5,14.9
			C744.1,641.5,743.5,645.8,742.3,650.3z M809.6,690.8c-2.1,2.1-4.5,3.1-7.3,3.1c-2.8,0-5.3-1-7.3-3.1c-2.1-2.1-3.1-4.5-3.1-7.3
			c0-2.8,1-5.3,3.1-7.3c2.1-2,4.5-3,7.3-3c2.8,0,5.3,1,7.3,3c2.1,2,3.1,4.4,3.1,7.3C812.7,686.3,811.6,688.7,809.6,690.8z
			 M880.8,650.3c-1.2,4.4-3.2,9-5.9,13.7h-27.5c-0.7-0.7-1.4-1.5-2.1-2.4c-1.4-1.7-2.7-3.9-3.9-6.7c-0.9,1.6-1.9,3.2-2.8,4.7
			c-1,1.5-2,3-3.2,4.4h-14.7h0h-16.4c-3-3.6-5.3-7.7-6.9-12.3c-1.7-4.6-2.6-9.2-3-13.8c-2.3,1.3-4.7,2.3-7.2,3
			c-2.5,0.7-5,1.3-7.5,1.8c0,7.8-0.9,15.2-2.6,22.5c-1.7,7.2-4.9,14.4-9.6,21.5l-22.7-15.9c1.6-1.5,3.2-3.3,4.7-5.4
			c1.5-2.1,2.9-4.5,4.1-7.3c1.2-2.7,2.2-5.8,2.9-9.2c0.7-3.4,1.1-7.2,1.1-11.5c0-4-0.4-8.3-1.1-12.9c-0.7-4.6-2-9.7-3.7-15.1h24.8
			c0,2.5,0.1,5,0.2,7.3c0.1,2.4,0.3,4.8,0.5,7.2c3-1,5.5-2.7,7.6-5c2.1-2.3,3.4-5.5,4-9.6h23.9c0,6.6,0.5,13.9,1.4,22
			c0.9,8,2.7,15.5,5.5,22.5c3-6.9,5.3-14.4,6.9-22.3c1.7-7.9,3-15.3,4.2-22.1h41.7c2.7,4.2,4.9,8.7,6.6,13.3
			c1.7,4.7,2.5,9.6,2.5,14.9C882.6,641.5,882,645.8,880.8,650.3z"/>
	</g>
</g>
</svg>
