<?xml version="1.0" encoding="iso-8859-1"?>
<!-- Generator: Adobe Illustrator 22.0.1, SVG Export Plug-In . SVG Version: 6.00 Build 0)  -->
<svg version="1.1" id="Layer_1" xmlns="http://www.w3.org/2000/svg" xmlns:xlink="http://www.w3.org/1999/xlink" x="0px" y="0px"
	 viewBox="0 0 609.449 609.449" style="enable-background:new 0 0 609.449 609.449;" xml:space="preserve">
<rect x="-12" y="-8.551" style="display:none;" width="634" height="659"/>
<g>
	<path style="fill:#121212;" d="M303.801,44.051c-144.017,0-261.199,117.182-261.199,261.199s117.182,261.199,261.199,261.199
		C447.818,566.449,565,449.266,565,305.25S447.818,44.051,303.801,44.051L303.801,44.051z M303.801,546.333
		c-132.928,0-241.082-108.154-241.082-241.083c0-132.929,108.154-241.083,241.082-241.083
		c132.929,0,241.083,108.154,241.083,241.083C544.883,438.179,436.73,546.333,303.801,546.333L303.801,546.333z M303.801,546.333"/>
	<path style="display:none;fill:#121212;" d="M303.801,144.507c-5.55,0-10.058,4.508-10.058,10.058v220.966
		c0,5.601,4.508,10.059,10.058,10.059c5.538,0,10.059-4.458,10.059-10.059V154.565C313.859,149.015,309.338,144.507,303.801,144.507
		L303.801,144.507z M303.801,144.507"/>
	<path style="display:none;fill:#121212;" d="M303.801,415.764c-5.55,0-10.058,4.458-10.058,9.995v20.117
		c0,5.538,4.508,10.058,10.058,10.058c5.538,0,10.059-4.52,10.059-10.058V425.76C313.859,420.222,309.338,415.764,303.801,415.764
		L303.801,415.764z M303.801,415.764"/>
</g>
<path style="fill:#121212;" d="M278.339,135.782l-0.004,49.135l0.007,256.958c-0.004,0.071,0.034,0.131,0.034,0.198
	c0.012,0.603,0.128,1.198,0.343,1.761l0.034,0.093l21.073,52.681c0.659,1.647,2.101,2.853,3.839,3.21
	c1.738,0.357,3.538-0.183,4.793-1.437c0.507-0.505,0.904-1.108,1.168-1.773l21.069-52.677l0.034-0.093
	c0.217-0.562,0.333-1.159,0.343-1.761c0-0.067,0.037-0.127,0.034-0.198l0.007-256.951l-0.004-49.135
	c-0.064-14.528-11.859-26.272-26.387-26.272c-14.528,0-26.323,11.744-26.387,26.272L278.339,135.782z M320.556,179.641h-31.66
	l-0.004-12.192h31.667L320.556,179.641z M288.896,190.194h31.66l0.004,246.401h-31.667L288.896,190.194z M304.726,480.469
	l-13.315-33.287h26.629L304.726,480.469z M320.556,135.816v21.114l-31.664-0.034l0.019-21.095c0-5.657,3.018-10.884,7.917-13.712
	c4.899-2.828,10.935-2.828,15.834,0c4.899,2.828,7.917,8.056,7.917,13.712L320.556,135.816z"/>
</svg>
