<?xml version="1.0" encoding="iso-8859-1"?>
<!-- Generator: Adobe Illustrator 22.0.1, SVG Export Plug-In . SVG Version: 6.00 Build 0)  -->
<svg version="1.1" id="Layer_1" xmlns="http://www.w3.org/2000/svg" xmlns:xlink="http://www.w3.org/1999/xlink" x="0px" y="0px"
	 viewBox="0 0 609.449 609.449" style="enable-background:new 0 0 609.449 609.449;" xml:space="preserve">
<g>
	<path style="fill:#FFFFFF;" d="M303.801,44.051c-144.017,0-261.199,117.182-261.199,261.199s117.182,261.199,261.199,261.199
		C447.818,566.449,565,449.266,565,305.25S447.818,44.051,303.801,44.051L303.801,44.051z M303.801,546.333
		c-132.928,0-241.082-108.154-241.082-241.083c0-132.929,108.154-241.083,241.082-241.083
		c132.929,0,241.083,108.154,241.083,241.083C544.883,438.179,436.73,546.333,303.801,546.333L303.801,546.333z M303.801,546.333"/>
	<path style="fill:#FFFFFF;" d="M303.801,144.507c-5.55,0-10.058,4.508-10.058,10.058v220.966c0,5.601,4.508,10.059,10.058,10.059
		c5.538,0,10.059-4.458,10.059-10.059V154.565C313.859,149.015,309.338,144.507,303.801,144.507L303.801,144.507z M303.801,144.507"
		/>
	<path style="fill:#FFFFFF;" d="M303.801,415.764c-5.55,0-10.058,4.458-10.058,9.995v20.117c0,5.538,4.508,10.058,10.058,10.058
		c5.538,0,10.059-4.52,10.059-10.058V425.76C313.859,420.222,309.338,415.764,303.801,415.764L303.801,415.764z M303.801,415.764"/>
</g>
</svg>
